<svg width="65" height="65" viewBox="0 0 65 65" fill="none" xmlns="http://www.w3.org/2000/svg">
<path d="M24.375 13.3047C24.375 12.1367 23.6387 11.1084 22.6992 10.4102C21.2266 9.30566 20.3125 7.78223 20.3125 6.09375C20.3125 2.72949 23.9561 0 28.4375 0C32.9189 0 36.5625 2.72949 36.5625 6.09375C36.5625 7.78223 35.6484 9.30566 34.1758 10.4102C33.2363 11.1084 32.5 12.1367 32.5 13.3047C32.5 14.9297 33.8203 16.25 35.4453 16.25H42.6562C46.0205 16.25 48.75 18.9795 48.75 22.3438V29.5547C48.75 31.1797 50.0703 32.5 51.6953 32.5C52.8633 32.5 53.8916 31.7637 54.5898 30.8242C55.6943 29.3516 57.2178 28.4375 58.9062 28.4375C62.2705 28.4375 65 32.0811 65 36.5625C65 41.0439 62.2705 44.6875 58.9062 44.6875C57.2178 44.6875 55.6943 43.7734 54.5898 42.3008C53.8916 41.3613 52.8633 40.625 51.6953 40.625C50.0703 40.625 48.75 41.9453 48.75 43.5703V58.9062C48.75 62.2705 46.0205 65 42.6562 65H35.4453C33.8203 65 32.5 63.6797 32.5 62.0547C32.5 60.8867 33.2363 59.8584 34.1758 59.1602C35.6484 58.0557 36.5625 56.5322 36.5625 54.8438C36.5625 51.4795 32.9189 48.75 28.4375 48.75C23.9561 48.75 20.3125 51.4795 20.3125 54.8438C20.3125 56.5322 21.2266 58.0557 22.6992 59.1602C23.6387 59.8584 24.375 60.8867 24.375 62.0547C24.375 63.6797 23.0547 65 21.4297 65H6.09375C2.72949 65 0 62.2705 0 58.9062V43.5703C0 41.9453 1.32031 40.625 2.94531 40.625C4.11328 40.625 5.1416 41.3613 5.83984 42.3008C6.94434 43.7734 8.46777 44.6875 10.1562 44.6875C13.5205 44.6875 16.25 41.0439 16.25 36.5625C16.25 32.0811 13.5205 28.4375 10.1562 28.4375C8.46777 28.4375 6.94434 29.3516 5.83984 30.8242C5.1416 31.7637 4.11328 32.5 2.94531 32.5C1.32031 32.5 0 31.1797 0 29.5547V22.3438C0 18.9795 2.72949 16.25 6.09375 16.25H21.4297C23.0547 16.25 24.375 14.9297 24.375 13.3047Z" fill="white"/>
</svg>
