<svg width="60" height="65" viewBox="0 0 60 65" fill="none" xmlns="http://www.w3.org/2000/svg">
<path d="M58.6103 5.1941C59.7013 4.00071 59.7013 2.07098 58.6103 0.890287C57.5193 -0.290406 55.7551 -0.303102 54.6757 0.890287L44.4503 12.0497C43.3593 13.2431 43.3593 15.1729 44.4503 16.3536C45.5413 17.5342 47.3055 17.5469 48.3849 16.3536L58.5987 5.18141L58.6103 5.1941ZM35.4552 3.4548C34.7356 2.66767 33.5517 2.66767 32.8321 3.4548L31.509 4.88941C27.1565 9.65026 27.1565 17.3692 31.509 22.1301L32.716 23.4504L29.176 27.3226C28.7814 23.8567 27.377 20.4923 24.9396 17.8262L23.6281 16.3916C22.9085 15.6045 21.7246 15.6045 21.005 16.3916L19.6935 17.8262C15.341 22.5871 15.341 30.306 19.6935 35.0669L20.9005 36.3872L17.3605 40.2594C16.9659 36.7935 15.5615 33.4292 13.1241 30.7631L11.8126 29.3158C11.093 28.5287 9.90911 28.5287 9.18951 29.3158L7.87796 30.7504C3.5255 35.5112 3.5255 43.2302 7.87796 47.991L9.08505 49.3114L1.08812 58.0587C-0.362705 59.6456 -0.362705 62.2228 1.08812 63.8098C2.53894 65.3967 4.89507 65.3967 6.3459 63.8098L14.3428 55.0625L15.7588 56.6114C20.1113 61.3722 27.1681 61.3722 31.5206 56.6114L32.8321 55.1768C33.5517 54.3896 33.5517 53.0947 32.8321 52.3075L31.5206 50.8729C28.9903 48.1053 25.7637 46.5437 22.4558 46.1883L26.1583 42.1384L27.5743 43.6872C31.9268 48.4481 38.9836 48.4481 43.3361 43.6872L44.6476 42.2526C45.3672 41.4655 45.3672 40.1705 44.6476 39.3834L43.3361 37.9488C40.8058 35.1812 37.5792 33.6196 34.2713 33.2641L37.9738 29.2142L39.3898 30.7631C43.7423 35.5239 50.7991 35.5239 55.1516 30.7631L56.4631 29.3158C57.1827 28.5287 57.1827 27.2337 56.4631 26.4466L55.1516 24.9993C54.548 24.3391 53.9212 23.7551 53.2481 23.2346L58.6103 17.3819C59.7013 16.1885 59.7013 14.2588 58.6103 13.0781C57.5193 11.8974 55.7551 11.8847 54.6757 13.0781L47.7814 20.6193C45.3904 20.0607 42.9066 20.1495 40.5505 20.8859C41.2585 18.1817 41.3165 15.3252 40.713 12.5956L47.468 5.1941C48.559 4.00071 48.559 2.07098 47.468 0.890287C46.377 -0.290406 44.6128 -0.303102 43.5334 0.890287L38.1943 6.70488C37.7649 6.0701 37.289 5.46071 36.7551 4.88941L35.4552 3.4548Z" fill="white"/>
</svg>
