<svg width="82" height="65" viewBox="0 0 82 65" fill="none" xmlns="http://www.w3.org/2000/svg">
<path d="M45.1464 6.86908L42.1349 0.800723C41.6372 -0.252988 40.0805 -0.291074 39.5318 0.800723L36.5203 6.86908L29.8466 7.82123C28.6599 7.99896 28.1495 9.45893 29.0299 10.3349L33.8789 15.0322L32.7305 21.6464C32.5518 22.8271 33.7768 23.7412 34.8742 23.1953L40.8589 20.0468L46.8052 23.1445C47.9026 23.6904 49.1404 22.7763 48.949 21.5956L47.8005 14.9814L52.6495 10.3349C53.5172 9.47162 53.0195 8.01166 51.8328 7.82123L45.1591 6.86908H45.1464ZM32.6667 32.5009C30.4081 32.5009 28.5833 34.3163 28.5833 36.5634V60.9384C28.5833 63.1855 30.4081 65.0009 32.6667 65.0009H49C51.2586 65.0009 53.0833 63.1855 53.0833 60.9384V36.5634C53.0833 34.3163 51.2586 32.5009 49 32.5009H32.6667ZM4.08333 40.6259C1.82474 40.6259 0 42.4413 0 44.6884V60.9384C0 63.1855 1.82474 65.0009 4.08333 65.0009H20.4167C22.6753 65.0009 24.5 63.1855 24.5 60.9384V44.6884C24.5 42.4413 22.6753 40.6259 20.4167 40.6259H4.08333ZM57.1667 52.8134V60.9384C57.1667 63.1855 58.9914 65.0009 61.25 65.0009H77.5833C79.8419 65.0009 81.6667 63.1855 81.6667 60.9384V52.8134C81.6667 50.5663 79.8419 48.7509 77.5833 48.7509H61.25C58.9914 48.7509 57.1667 50.5663 57.1667 52.8134Z" fill="white"/>
</svg>
