<svg width="83" height="65" viewBox="0 0 83 65" fill="none" xmlns="http://www.w3.org/2000/svg">
<g clip-path="url(#clip0_2192_5821)">
<path d="M41.0526 4.0625C40.0135 4.0625 38.9872 4.24023 38.0122 4.58301L2.02696 17.4434C0.808215 17.8877 -8.97655e-06 19.0303 -8.97655e-06 20.3125C-8.97655e-06 21.5947 0.808215 22.7373 2.02696 23.1816L9.45492 25.835C7.35098 29.1104 6.15789 32.9824 6.15789 37.0576V40.625C6.15789 44.2305 4.77236 47.9502 3.29703 50.8828C2.46315 52.5332 1.51381 54.1582 0.410517 55.6562C-8.97236e-06 56.2021 -0.115469 56.9131 0.115452 57.5605C0.346373 58.208 0.885188 58.6904 1.55229 58.8555L9.76282 60.8867C10.3016 61.0264 10.8789 60.9248 11.3536 60.6328C11.8283 60.3408 12.1618 59.8584 12.2645 59.3125C13.3678 53.8789 12.8161 49.0039 11.9951 45.5127C11.5845 43.71 11.0329 41.8691 10.2631 40.1807V37.0576C10.2631 33.2236 11.5717 29.6055 13.8424 26.7109C15.4974 24.7432 17.6398 23.1562 20.1543 22.1787L40.2957 14.3457C41.3477 13.9395 42.5408 14.4473 42.9513 15.4883C43.3618 16.5293 42.8487 17.71 41.7967 18.1162L21.6553 25.9492C20.0645 26.5713 18.6661 27.5234 17.5243 28.6914L37.9993 36.0039C38.9743 36.3467 40.0006 36.5244 41.0398 36.5244C42.0789 36.5244 43.1052 36.3467 44.0802 36.0039L80.0783 23.1816C81.297 22.75 82.1052 21.5947 82.1052 20.3125C82.1052 19.0303 81.297 17.8877 80.0783 17.4434L44.0931 4.58301C43.1181 4.24023 42.0918 4.0625 41.0526 4.0625ZM16.421 51.7969C16.421 56.2783 27.4539 60.9375 41.0526 60.9375C54.6513 60.9375 65.6842 56.2783 65.6842 51.7969L63.7214 33.3379L45.4786 39.8633C44.0546 40.3711 42.5536 40.625 41.0526 40.625C39.5516 40.625 38.0378 40.3711 36.6266 39.8633L18.3839 33.3379L16.421 51.7969Z" fill="white"/>
</g>
<defs>
<clipPath id="clip0_2192_5821">
<rect width="82.1053" height="65" fill="white"/>
</clipPath>
</defs>
</svg>
