<svg width="71" height="65" viewBox="0 0 71 65" fill="none" xmlns="http://www.w3.org/2000/svg">
<path d="M37.4747 0.675772C36.2766 -0.225257 34.7234 -0.225257 33.5253 0.675772L18.4489 12.0137H5.325C2.38516 12.0137 0 14.7043 0 18.0206V58.0663C0 61.3826 2.38516 64.0732 5.325 64.0732H28.4V52.0595C28.4 47.6419 31.5839 44.0503 35.5 44.0503C39.4161 44.0503 42.6 47.6419 42.6 52.0595V64.0732H65.675C68.6148 64.0732 71 61.3826 71 58.0663V18.0206C71 14.7043 68.6148 12.0137 65.675 12.0137H52.5511L37.4747 0.675772ZM10.65 24.0274H14.2C15.1762 24.0274 15.975 24.9285 15.975 26.0297V34.0389C15.975 35.1401 15.1762 36.0412 14.2 36.0412H10.65C9.67375 36.0412 8.875 35.1401 8.875 34.0389V26.0297C8.875 24.9285 9.67375 24.0274 10.65 24.0274ZM55.025 26.0297C55.025 24.9285 55.8237 24.0274 56.8 24.0274H60.35C61.3262 24.0274 62.125 24.9285 62.125 26.0297V34.0389C62.125 35.1401 61.3262 36.0412 60.35 36.0412H56.8C55.8237 36.0412 55.025 35.1401 55.025 34.0389V26.0297ZM10.65 40.0457H14.2C15.1762 40.0457 15.975 40.9468 15.975 42.048V50.0572C15.975 51.1584 15.1762 52.0595 14.2 52.0595H10.65C9.67375 52.0595 8.875 51.1584 8.875 50.0572V42.048C8.875 40.9468 9.67375 40.0457 10.65 40.0457ZM55.025 42.048C55.025 40.9468 55.8237 40.0457 56.8 40.0457H60.35C61.3262 40.0457 62.125 40.9468 62.125 42.048V50.0572C62.125 51.1584 61.3262 52.0595 60.35 52.0595H56.8C55.8237 52.0595 55.025 51.1584 55.025 50.0572V42.048ZM25.7375 22.0252C25.7375 19.1044 26.766 16.3033 28.5969 14.2381C30.4277 12.1728 32.9108 11.0126 35.5 11.0126C38.0892 11.0126 40.5723 12.1728 42.4031 14.2381C44.234 16.3033 45.2625 19.1044 45.2625 22.0252C45.2625 24.9459 44.234 27.747 42.4031 29.8122C40.5723 31.8775 38.0892 33.0377 35.5 33.0377C32.9108 33.0377 30.4277 31.8775 28.5969 29.8122C26.766 27.747 25.7375 24.9459 25.7375 22.0252ZM35.5 16.0183C34.5238 16.0183 33.725 16.9193 33.725 18.0206V22.0252C33.725 23.1264 34.5238 24.0274 35.5 24.0274H39.05C40.0262 24.0274 40.825 23.1264 40.825 22.0252C40.825 20.9239 40.0262 20.0229 39.05 20.0229H37.275V18.0206C37.275 16.9193 36.4762 16.0183 35.5 16.0183Z" fill="white"/>
</svg>
