<svg width="65" height="65" viewBox="0 0 65 65" fill="none" xmlns="http://www.w3.org/2000/svg">
<path d="M34.5186 0.533203C33.2744 -0.177734 31.7383 -0.177734 30.4814 0.533203L2.04395 16.7832C0.787109 17.5068 0 18.8525 0 20.3125V60.9375C0 63.1846 1.81543 65 4.0625 65C6.30957 65 8.125 63.1846 8.125 60.9375V22.6738L32.5 8.74707L56.875 22.6738V60.9375C56.875 63.1846 58.6904 65 60.9375 65C63.1846 65 65 63.1846 65 60.9375V20.3125C65 18.8525 64.2129 17.5068 62.9561 16.7832L34.5186 0.533203ZM32.5 26.4062C33.8468 26.4062 35.1384 25.8712 36.0908 24.9189C37.0431 23.9666 37.5781 22.6749 37.5781 21.3281C37.5781 19.9813 37.0431 18.6897 36.0908 17.7373C35.1384 16.785 33.8468 16.25 32.5 16.25C31.1532 16.25 29.8616 16.785 28.9092 17.7373C27.9569 18.6897 27.4219 19.9813 27.4219 21.3281C27.4219 22.6749 27.9569 23.9666 28.9092 24.9189C29.8616 25.8712 31.1532 26.4062 32.5 26.4062ZM31.4844 61.9531V50.7812H33.5156V61.9531C33.5156 63.6416 34.874 65 36.5625 65C38.251 65 39.6094 63.6416 39.6094 61.9531V39.7998L43.0244 46.1348C43.8242 47.6201 45.665 48.166 47.1504 47.3789C48.6357 46.5918 49.1816 44.7383 48.3945 43.2529L43.583 34.3281C41.6406 30.71 37.8574 28.4502 33.7441 28.4502H31.2559C27.1426 28.4502 23.3721 30.71 21.417 34.3281L16.6055 43.2529C15.8057 44.7383 16.3643 46.5791 17.8496 47.3789C19.335 48.1787 21.1758 47.6201 21.9756 46.1348L25.3906 39.7998V61.9531C25.3906 63.6416 26.749 65 28.4375 65C30.126 65 31.4844 63.6416 31.4844 61.9531Z" fill="white"/>
</svg>
