<svg width="65" height="65" viewBox="0 0 65 65" fill="none" xmlns="http://www.w3.org/2000/svg">
<path d="M63.3623 0.798848C64.3906 1.56057 65 2.77932 65 4.06154V13.2022V46.7178C65 52.3291 59.541 56.874 52.8125 56.874C46.084 56.874 40.625 52.3291 40.625 46.7178C40.625 41.1065 46.084 36.5615 52.8125 36.5615C54.2344 36.5615 55.6055 36.7647 56.875 37.1455V18.6612L24.375 28.4112V54.8428C24.375 60.4541 18.916 64.999 12.1875 64.999C5.45898 64.999 0 60.4541 0 54.8428C0 49.2315 5.45898 44.6865 12.1875 44.6865C13.6094 44.6865 14.9805 44.8897 16.25 45.2705V25.3897V16.249C16.25 14.459 17.4307 12.8721 19.1445 12.3516L59.7695 0.164083C61.001 -0.204082 62.334 0.0244342 63.3623 0.798848Z" fill="white"/>
</svg>
