<svg width="91" height="38" viewBox="0 0 91 38" fill="none" xmlns="http://www.w3.org/2000/svg">
<rect width="91" height="38" rx="14" fill="#5C60BF"/>
<path d="M15.4205 27H10.2642V12.4545H15.4631C16.9261 12.4545 18.1856 12.7457 19.2415 13.3281C20.2973 13.9058 21.1094 14.7367 21.6776 15.821C22.2505 16.9053 22.5369 18.2027 22.5369 19.7131C22.5369 21.2282 22.2505 22.5303 21.6776 23.6193C21.1094 24.7083 20.2926 25.544 19.2273 26.1264C18.1667 26.7088 16.8977 27 15.4205 27ZM13.3395 24.3651H15.2926C16.2017 24.3651 16.9664 24.2041 17.5866 23.8821C18.2116 23.5554 18.6804 23.0511 18.9929 22.3693C19.3101 21.6828 19.4688 20.7973 19.4688 19.7131C19.4688 18.6383 19.3101 17.7599 18.9929 17.0781C18.6804 16.3963 18.214 15.8944 17.5938 15.5724C16.9735 15.2505 16.2088 15.0895 15.2997 15.0895H13.3395V24.3651ZM29.6871 27.2131C28.5839 27.2131 27.6299 26.9787 26.8249 26.5099C26.0247 26.0365 25.4068 25.3783 24.9712 24.5355C24.5356 23.688 24.3178 22.7055 24.3178 21.5881C24.3178 20.4612 24.5356 19.4763 24.9712 18.6335C25.4068 17.786 26.0247 17.1278 26.8249 16.6591C27.6299 16.1856 28.5839 15.9489 29.6871 15.9489C30.7904 15.9489 31.7421 16.1856 32.5423 16.6591C33.3472 17.1278 33.9674 17.786 34.4031 18.6335C34.8387 19.4763 35.0565 20.4612 35.0565 21.5881C35.0565 22.7055 34.8387 23.688 34.4031 24.5355C33.9674 25.3783 33.3472 26.0365 32.5423 26.5099C31.7421 26.9787 30.7904 27.2131 29.6871 27.2131ZM29.7013 24.8693C30.2032 24.8693 30.6223 24.7273 30.9585 24.4432C31.2946 24.1544 31.5479 23.7614 31.7184 23.2642C31.8936 22.767 31.9812 22.2012 31.9812 21.5668C31.9812 20.9323 31.8936 20.3665 31.7184 19.8693C31.5479 19.3722 31.2946 18.9792 30.9585 18.6903C30.6223 18.4015 30.2032 18.2571 29.7013 18.2571C29.1947 18.2571 28.7686 18.4015 28.4229 18.6903C28.082 18.9792 27.824 19.3722 27.6488 19.8693C27.4783 20.3665 27.3931 20.9323 27.3931 21.5668C27.3931 22.2012 27.4783 22.767 27.6488 23.2642C27.824 23.7614 28.082 24.1544 28.4229 24.4432C28.7686 24.7273 29.1947 24.8693 29.7013 24.8693ZM40.0494 20.6932V27H37.0238V16.0909H39.9073V18.0156H40.0352C40.2766 17.3812 40.6815 16.8793 41.2496 16.5099C41.8178 16.1359 42.5067 15.9489 43.3164 15.9489C44.074 15.9489 44.7345 16.1146 45.2979 16.446C45.8614 16.7775 46.2994 17.2509 46.6119 17.8665C46.9244 18.4773 47.0806 19.2064 47.0806 20.054V27H44.055V20.5938C44.0598 19.9261 43.8893 19.4053 43.5437 19.0312C43.198 18.6525 42.7222 18.4631 42.1161 18.4631C41.7089 18.4631 41.3491 18.5507 41.0366 18.7259C40.7288 18.901 40.4873 19.1567 40.3121 19.4929C40.1417 19.8243 40.0541 20.2244 40.0494 20.6932ZM52.576 27.206C51.88 27.206 51.2597 27.0852 50.7152 26.8438C50.1707 26.5975 49.7398 26.2353 49.4226 25.7571C49.1101 25.2741 48.9538 24.6728 48.9538 23.9531C48.9538 23.3471 49.0651 22.8381 49.2876 22.4261C49.5102 22.0142 49.8132 21.6828 50.1967 21.4318C50.5803 21.1809 51.0159 20.9915 51.5036 20.8636C51.996 20.7358 52.5121 20.6458 53.0518 20.5938C53.6863 20.5275 54.1977 20.4659 54.5859 20.4091C54.9742 20.3475 55.2559 20.2576 55.4311 20.1392C55.6063 20.0208 55.6939 19.8456 55.6939 19.6136V19.571C55.6939 19.1212 55.5518 18.7732 55.2678 18.527C54.9884 18.2808 54.5907 18.1577 54.0746 18.1577C53.5301 18.1577 53.0968 18.2784 52.7749 18.5199C52.4529 18.7566 52.2398 19.0549 52.1357 19.4148L49.3374 19.1875C49.4794 18.5246 49.7588 17.9517 50.1754 17.4688C50.5921 16.9811 51.1295 16.607 51.7876 16.3466C52.4505 16.0814 53.2176 15.9489 54.0888 15.9489C54.6948 15.9489 55.2749 16.0199 55.8288 16.1619C56.3875 16.304 56.8823 16.5241 57.3132 16.8224C57.7488 17.1207 58.0921 17.5043 58.343 17.973C58.594 18.437 58.7195 18.9934 58.7195 19.642V27H55.8501V25.4872H55.7649C55.5897 25.8281 55.3554 26.1288 55.0618 26.3892C54.7682 26.6449 54.4155 26.8461 54.0036 26.9929C53.5916 27.1349 53.1158 27.206 52.576 27.206ZM53.4425 25.1179C53.8875 25.1179 54.2805 25.0303 54.6214 24.8551C54.9624 24.6752 55.2299 24.4337 55.424 24.1307C55.6181 23.8277 55.7152 23.4844 55.7152 23.1009V21.9432C55.6205 22.0047 55.4903 22.0616 55.3246 22.1136C55.1636 22.161 54.9813 22.206 54.7777 22.2486C54.5741 22.2865 54.3705 22.322 54.1669 22.3551C53.9633 22.3835 53.7786 22.4096 53.6129 22.4332C53.2578 22.4853 52.9477 22.5682 52.6825 22.6818C52.4174 22.7955 52.2114 22.9493 52.0646 23.1435C51.9179 23.3329 51.8445 23.5696 51.8445 23.8537C51.8445 24.2656 51.9936 24.5805 52.2919 24.7983C52.5949 25.0114 52.9785 25.1179 53.4425 25.1179ZM66.8693 16.0909V18.3636H60.2997V16.0909H66.8693ZM61.7912 13.4773H64.8168V23.6477C64.8168 23.9271 64.8594 24.1449 64.9446 24.3011C65.0298 24.4527 65.1482 24.5592 65.2997 24.6207C65.456 24.6823 65.6359 24.7131 65.8395 24.7131C65.9815 24.7131 66.1236 24.7012 66.2656 24.6776C66.4077 24.6491 66.5166 24.6278 66.5923 24.6136L67.0682 26.8651C66.9167 26.9124 66.7036 26.9669 66.429 27.0284C66.1544 27.0947 65.8205 27.1349 65.4276 27.1491C64.6984 27.1776 64.0592 27.0805 63.5099 26.858C62.9654 26.6354 62.5417 26.2898 62.2386 25.821C61.9356 25.3523 61.7865 24.7604 61.7912 24.0455V13.4773ZM73.6946 27.2131C72.5724 27.2131 71.6065 26.9858 70.7969 26.5312C69.992 26.072 69.3717 25.4233 68.9361 24.5852C68.5005 23.7424 68.2827 22.7457 68.2827 21.5952C68.2827 20.473 68.5005 19.4882 68.9361 18.6406C69.3717 17.7931 69.9848 17.1326 70.7756 16.6591C71.571 16.1856 72.5038 15.9489 73.5739 15.9489C74.2936 15.9489 74.9635 16.0649 75.5838 16.2969C76.2088 16.5241 76.7533 16.8674 77.2173 17.3267C77.6861 17.786 78.0507 18.3636 78.3111 19.0597C78.5715 19.7509 78.7017 20.5606 78.7017 21.4886V22.3196H69.4901V20.4446H75.8537C75.8537 20.009 75.759 19.6231 75.5696 19.2869C75.3802 18.9508 75.1174 18.688 74.7812 18.4986C74.4498 18.3045 74.0639 18.2074 73.6236 18.2074C73.1643 18.2074 72.7571 18.3139 72.402 18.527C72.0516 18.7353 71.777 19.017 71.5781 19.3722C71.3793 19.7225 71.2775 20.1132 71.2727 20.544V22.3267C71.2727 22.8665 71.3722 23.3329 71.571 23.7259C71.7746 24.1188 72.0611 24.4219 72.4304 24.6349C72.7997 24.848 73.2377 24.9545 73.7443 24.9545C74.0805 24.9545 74.3883 24.9072 74.6676 24.8125C74.947 24.7178 75.1861 24.5758 75.3849 24.3864C75.5838 24.197 75.7353 23.965 75.8395 23.6903L78.6378 23.875C78.4957 24.5473 78.2045 25.1345 77.7642 25.6364C77.3286 26.1335 76.7652 26.5218 76.0739 26.8011C75.3873 27.0758 74.5942 27.2131 73.6946 27.2131Z" fill="white"/>
</svg>
