<svg width="23" height="21" viewBox="0 0 23 21" fill="none" xmlns="http://www.w3.org/2000/svg">
  <path d="M22.2578 10.5C22.2578 4.70039 17.3336 0 11.2578 0C5.18203 0 0.257812 4.70039 0.257812 10.5C0.257812 15.4219 3.81133 19.5562 8.60234 20.6924V13.7074H6.33359V10.5H8.60234V9.11777C8.60234 5.54531 10.2953 3.88828 13.9734 3.88828C14.6695 3.88828 15.8727 4.01953 16.3668 4.15078V7.05469C16.109 7.03008 15.6578 7.01367 15.0949 7.01367C13.2902 7.01367 12.5941 7.66582 12.5941 9.35976V10.5H16.1863L15.5676 13.7074H12.5898V20.9221C18.0383 20.2945 22.2578 15.8689 22.2578 10.5Z" fill="black"/>
</svg>