<svg width="19" height="18" viewBox="0 0 19 18" fill="none" xmlns="http://www.w3.org/2000/svg">
<path d="M15.1778 7.31115C15.1778 8.9249 14.654 10.4156 13.7715 11.625L18.2225 16.0795C18.662 16.519 18.662 17.2327 18.2225 17.6722C17.783 18.1117 17.0693 18.1117 16.6299 17.6722L12.1789 13.2177C10.9694 14.1037 9.47873 14.624 7.86498 14.624C3.82533 14.624 0.552124 11.3508 0.552124 7.31115C0.552124 3.2715 3.82533 -0.00170898 7.86498 -0.00170898C11.9046 -0.00170898 15.1778 3.2715 15.1778 7.31115ZM7.86498 12.3739C8.52983 12.3739 9.18817 12.2429 9.80241 11.9885C10.4167 11.7341 10.9748 11.3612 11.4449 10.891C11.915 10.4209 12.2879 9.86282 12.5424 9.24858C12.7968 8.63434 12.9277 7.976 12.9277 7.31115C12.9277 6.6463 12.7968 5.98796 12.5424 5.37372C12.2879 4.75948 11.915 4.20136 11.4449 3.73124C10.9748 3.26113 10.4167 2.88821 9.80241 2.63378C9.18817 2.37935 8.52983 2.2484 7.86498 2.2484C7.20013 2.2484 6.54179 2.37935 5.92755 2.63378C5.31331 2.88821 4.7552 3.26113 4.28508 3.73124C3.81496 4.20136 3.44204 4.75948 3.18761 5.37372C2.93319 5.98796 2.80223 6.6463 2.80223 7.31115C2.80223 7.976 2.93319 8.63434 3.18761 9.24858C3.44204 9.86282 3.81496 10.4209 4.28508 10.891C4.7552 11.3612 5.31331 11.7341 5.92755 11.9885C6.54179 12.2429 7.20013 12.3739 7.86498 12.3739Z" fill="#363732"/>
</svg>
