<svg width="49" height="46" viewBox="0 0 49 46" fill="none" xmlns="http://www.w3.org/2000/svg">
<g clip-path="url(#clip0_1_8)">
<path d="M24.5 46C38.031 46 49 35.7025 49 23C49 10.2975 38.031 0 24.5 0C10.969 0 0 10.2975 0 23C0 35.7025 10.969 46 24.5 46Z" fill="black"/>
<path d="M11 18H12.5767L16.2841 27.0554H16.412L20.1193 18H21.696V28.9091H20.4602V20.6207H20.3537L16.9446 28.9091H15.7514L12.3424 20.6207H12.2358V28.9091H11V18ZM24.3447 28.9091V18H30.8859V19.1719H25.6658V22.858H30.3959V24.0298H25.6658V28.9091H24.3447ZM33.1485 28.9091V18H39.6897V19.1719H34.4695V22.858H39.1996V24.0298H34.4695V28.9091H33.1485Z" fill="white"/>
</g>
<defs>
<clipPath id="clip0_1_8">
<rect width="49" height="46" fill="white"/>
</clipPath>
</defs>
</svg>
