<svg width="23" height="21" viewBox="0 0 23 21" fill="none" xmlns="http://www.w3.org/2000/svg">
  <path d="M9.96016 19.7762L9.85273 19.6692L2.32461 12.1052C1.00547 10.7802 0.257812 8.92057 0.257812 6.97261V6.81919C0.257812 3.54624 2.40625 0.738196 5.37969 0.124518C7.07266 -0.228812 8.8043 0.194254 10.1836 1.24495C10.5703 1.54249 10.9312 1.88652 11.2578 2.28169C11.4383 2.05853 11.6316 1.85397 11.8379 1.66336C11.9969 1.51459 12.1602 1.37512 12.332 1.24495C13.7113 0.194254 15.443 -0.228812 17.1359 0.119869C20.1094 0.733547 22.2578 3.54624 22.2578 6.81919V6.97261C22.2578 8.92057 21.5102 10.7802 20.191 12.1052L12.6629 19.6692L12.5555 19.7762C12.2031 20.1295 11.7391 20.3294 11.2578 20.3294C10.7766 20.3294 10.3125 20.1341 9.96016 19.7762ZM10.5316 4.75035C10.5145 4.7364 10.5016 4.71781 10.4887 4.69921L9.72383 3.76939L9.71953 3.76475C8.72695 2.56063 7.22734 2.01204 5.76641 2.31423C3.76406 2.728 2.32031 4.61553 2.32031 6.81919V6.97261C2.32031 8.2976 2.83164 9.56679 3.72969 10.4687L11.2578 18.0328L18.7859 10.4687C19.684 9.56679 20.1953 8.2976 20.1953 6.97261V6.81919C20.1953 4.62018 18.7516 2.728 16.7535 2.31423C15.2926 2.01204 13.7887 2.56528 12.8004 3.76475C12.8004 3.76475 12.8004 3.76475 12.7961 3.76939C12.7918 3.77404 12.7961 3.76939 12.7918 3.77404L12.027 4.70386C12.0141 4.72246 11.9969 4.7364 11.984 4.755C11.7906 4.96421 11.5285 5.08044 11.2578 5.08044C10.9871 5.08044 10.725 4.96421 10.5316 4.755V4.75035Z" fill="currentColor"/>
</svg>